<svg width="1024" height="1024" viewBox="0 0 1024 1024" fill="none" xmlns="http://www.w3.org/2000/svg">
  <defs>
    <linearGradient id="bg" x1="164" y1="92" x2="860" y2="932" gradientUnits="userSpaceOnUse">
      <stop stop-color="#F8FDFF"/>
      <stop offset="0.55" stop-color="#DFF6FF"/>
      <stop offset="1" stop-color="#B9E9FF"/>
    </linearGradient>
    <linearGradient id="sky" x1="246" y1="224" x2="800" y2="776" gradientUnits="userSpaceOnUse">
      <stop stop-color="#38D5FF"/>
      <stop offset="1" stop-color="#0EA5E9"/>
    </linearGradient>
    <linearGradient id="rainbow" x1="286" y1="288" x2="746" y2="736" gradientUnits="userSpaceOnUse">
      <stop stop-color="#38BDF8"/>
      <stop offset="0.35" stop-color="#22D3EE"/>
      <stop offset="0.62" stop-color="#86EFAC"/>
      <stop offset="0.82" stop-color="#FDE68A"/>
      <stop offset="1" stop-color="#F9A8D4"/>
    </linearGradient>
    <filter id="shadow" x="102" y="92" width="820" height="850" filterUnits="userSpaceOnUse" color-interpolation-filters="sRGB">
      <feDropShadow dx="0" dy="32" stdDeviation="48" flood-color="#38BDF8" flood-opacity="0.24"/>
      <feDropShadow dx="0" dy="8" stdDeviation="18" flood-color="#0F5E88" flood-opacity="0.16"/>
    </filter>
  </defs>
  <rect width="1024" height="1024" rx="228" fill="url(#bg)"/>
  <path d="M218 172C326 110 696 104 808 182C892 241 908 782 802 852C688 928 318 918 220 846C120 772 116 230 218 172Z" fill="white" fill-opacity="0.58"/>
  <g filter="url(#shadow)">
    <rect x="196" y="176" width="632" height="672" rx="172" fill="white" fill-opacity="0.82"/>
    <rect x="196" y="176" width="632" height="672" rx="172" stroke="#BAE6FD" stroke-width="24"/>
  </g>
  <path d="M320 350H610C704 350 774 422 774 512C774 602 704 674 610 674H320" stroke="url(#sky)" stroke-width="78" stroke-linecap="round"/>
  <path d="M322 350H610C704 350 774 422 774 512C774 602 704 674 610 674H322" stroke="white" stroke-opacity="0.55" stroke-width="20" stroke-linecap="round"/>
  <path d="M322 350V674" stroke="#0EA5E9" stroke-width="78" stroke-linecap="round"/>
  <path d="M322 350V674" stroke="white" stroke-opacity="0.55" stroke-width="20" stroke-linecap="round"/>
  <path d="M430 432L512 350L594 432" stroke="#0B2A4A" stroke-width="54" stroke-linecap="round" stroke-linejoin="round"/>
  <path d="M430 592L512 674L594 592" stroke="#0B2A4A" stroke-width="54" stroke-linecap="round" stroke-linejoin="round"/>
  <circle cx="704" cy="320" r="54" fill="url(#rainbow)"/>
  <path d="M728 256L754 230M758 306H800M704 214V174" stroke="white" stroke-width="26" stroke-linecap="round"/>
  <path d="M248 744C350 794 660 798 778 740" stroke="url(#rainbow)" stroke-width="24" stroke-linecap="round" opacity="0.9"/>
</svg>
